<svg xmlns="http://www.w3.org/2000/svg" xmlns:xlink="http://www.w3.org/1999/xlink" width="1280" zoomAndPan="magnify" viewBox="0 0 960 599.999999" height="800" preserveAspectRatio="xMidYMid meet" version="1.0"><defs><g/><clipPath id="1c3fc75334"><path d="M 242 68 L 706 68 L 706 423 L 242 423 Z M 242 68 " clip-rule="nonzero"/></clipPath><clipPath id="782b0632d8"><path d="M 268.867188 30.355469 L 726.953125 70.8125 L 691.953125 467.136719 L 233.863281 426.679688 Z M 268.867188 30.355469 " clip-rule="nonzero"/></clipPath><clipPath id="2ee180aaf9"><path d="M 268.867188 30.355469 L 726.953125 70.8125 L 691.953125 467.136719 L 233.863281 426.679688 Z M 268.867188 30.355469 " clip-rule="nonzero"/></clipPath></defs><g clip-path="url(#1c3fc75334)"><g clip-path="url(#782b0632d8)"><g clip-path="url(#2ee180aaf9)"><path fill="#1e1e1e" d="M 522.589844 76.046875 C 501.757812 126.746094 569.808594 165.863281 562.8125 182.851562 C 533.546875 191.25 503.644531 172.53125 473.125 178.699219 C 448.902344 174.914062 424.511719 178.804688 401.820312 187.5625 C 374.941406 193.695312 355.816406 214.25 334.300781 229.773438 C 318.957031 235.148438 312.84375 254.558594 302.324219 261.191406 C 286.875 257.632812 249.105469 255.160156 266.011719 285.109375 C 270.3125 295.710938 288.097656 314.199219 296.617188 307.382812 C 285.417969 318.648438 275.785156 311.628906 267.886719 325.96875 C 257.371094 343.003906 253.625 363.808594 243.714844 380.679688 C 240.347656 393.058594 240.589844 428.230469 257.070312 421.71875 C 289.738281 405.355469 271.871094 338.8125 345.984375 351.699219 C 365.601562 351.570312 380.828125 335.613281 396.699219 325.816406 C 408.597656 323.285156 423.253906 316.175781 433.621094 311.558594 C 456.859375 301.625 535.65625 295.316406 542.101562 299.886719 C 564.46875 308.417969 589.621094 308.324219 611.265625 319.605469 C 622.246094 326.832031 656.804688 347.972656 656.25 323.132812 C 655.710938 312.339844 629.554688 297.09375 652.746094 305.5625 C 669.035156 309.347656 693.265625 326.535156 705.132812 308.296875 C 706.148438 287.503906 683.792969 298.164062 674.449219 290.570312 C 664.023438 285.628906 659.800781 281.890625 646.390625 277.691406 C 621.207031 272.472656 644.207031 255.835938 659.238281 257.929688 C 684.398438 258.914062 679.710938 223.246094 670.167969 210.464844 C 661.519531 187.292969 639.863281 173.273438 617.519531 165.351562 C 609.347656 143.75 603.164062 120.824219 590.085938 101.621094 C 580.75 90.714844 557.453125 79.527344 547.871094 88.109375 C 543.160156 89.210938 531.949219 53.777344 522.589844 76.046875 Z M 522.589844 76.046875 " fill-opacity="1" fill-rule="nonzero"/></g></g></g><g fill="#1e1e1e" fill-opacity="1"><g transform="translate(331.420147, 508.144662)"><g><path d="M 106.0625 -39.5 C 106.0625 -31.550781 104.1875 -24.425781 100.4375 -18.125 C 96.695312 -11.832031 91.191406 -6.894531 83.921875 -3.3125 C 76.660156 0.257812 67.8125 2.046875 57.375 2.046875 C 45.457031 2.046875 35.15625 -0.078125 26.46875 -4.328125 C 17.789062 -8.585938 10.613281 -13.898438 4.9375 -20.265625 L 20.9375 -34.890625 C 25.707031 -29.671875 30.957031 -25.53125 36.6875 -22.46875 C 42.414062 -19.40625 49.367188 -17.875 57.546875 -17.875 C 66.273438 -17.875 72.851562 -19.488281 77.28125 -22.71875 C 81.707031 -25.957031 83.921875 -30.53125 83.921875 -36.4375 C 83.921875 -40.96875 82.671875 -44.507812 80.171875 -47.0625 C 77.679688 -49.625 73.9375 -51.78125 68.9375 -53.53125 C 63.945312 -55.289062 57.648438 -57.191406 50.046875 -59.234375 C 45.390625 -60.484375 40.648438 -61.875 35.828125 -63.40625 C 31.003906 -64.9375 26.578125 -66.976562 22.546875 -69.53125 C 18.523438 -72.09375 15.289062 -75.414062 12.84375 -79.5 C 10.40625 -83.582031 9.1875 -88.800781 9.1875 -95.15625 C 9.1875 -103.21875 11.203125 -110.113281 15.234375 -115.84375 C 19.265625 -121.570312 24.738281 -125.992188 31.65625 -129.109375 C 38.582031 -132.234375 46.359375 -133.796875 54.984375 -133.796875 C 64.398438 -133.796875 73.050781 -132.066406 80.9375 -128.609375 C 88.832031 -125.148438 95.84375 -120.695312 101.96875 -115.25 L 86.484375 -99.421875 C 81.597656 -103.847656 76.65625 -107.28125 71.65625 -109.71875 C 66.664062 -112.15625 60.828125 -113.375 54.140625 -113.375 C 46.304688 -113.375 40.570312 -111.925781 36.9375 -109.03125 C 33.3125 -106.132812 31.5 -102.25 31.5 -97.375 C 31.5 -93.519531 32.601562 -90.484375 34.8125 -88.265625 C 37.019531 -86.054688 40.453125 -84.179688 45.109375 -82.640625 C 49.765625 -81.109375 55.609375 -79.4375 62.640625 -77.625 C 67.640625 -76.375 72.691406 -74.953125 77.796875 -73.359375 C 82.898438 -71.773438 87.578125 -69.675781 91.828125 -67.0625 C 96.085938 -64.457031 99.523438 -60.96875 102.140625 -56.59375 C 104.753906 -52.226562 106.0625 -46.53125 106.0625 -39.5 Z M 106.0625 -39.5 "/></g></g></g><g fill="#1e1e1e" fill-opacity="1"><g transform="translate(431.52102, 508.144662)"><g><path d="M 82.046875 -34.5625 L 34.5625 -34.5625 L 22.984375 0 L 0.84375 0 L 46.140625 -131.765625 L 71.328125 -131.765625 L 115.59375 0 L 93.796875 0 Z M 41.03125 -54.8125 L 75.578125 -54.8125 L 58.734375 -106.90625 Z M 41.03125 -54.8125 "/></g></g></g><g fill="#1e1e1e" fill-opacity="1"><g transform="translate(538.261226, 508.144662)"><g><path d="M 34.390625 -131.765625 L 34.390625 0 L 11.578125 0 L 11.578125 -131.765625 Z M 34.390625 -131.765625 "/></g></g></g><g fill="#1e1e1e" fill-opacity="1"><g transform="translate(573.395858, 508.144662)"><g/></g></g></svg>